<svg xmlns="http://www.w3.org/2000/svg" viewBox="0 0 512 512" fill="none">
  <!-- Dark navy background -->
  <rect width="512" height="512" fill="#050a18"/>
  <!-- Outer hex -->
  <polygon
    points="256,32 448,144 448,368 256,480 64,368 64,144"
    fill="#080f24"
    stroke="#1d4ed8"
    stroke-width="8"
  />
  <!-- Mid hex ring -->
  <polygon
    points="256,64 416,160 416,352 256,448 96,352 96,160"
    fill="none"
    stroke="#2563eb"
    stroke-width="3"
    opacity="0.35"
  />
  <!-- Inner hex ring -->
  <polygon
    points="256,96 384,176 384,336 256,416 128,336 128,176"
    fill="none"
    stroke="#3b82f6"
    stroke-width="1.5"
    opacity="0.2"
  />
  <!-- Corner brackets -->
  <path d="M64 152 L64 120 L96 120" stroke="#3b82f6" stroke-width="6" fill="none" opacity="0.7"/>
  <path d="M448 360 L448 392 L416 392" stroke="#3b82f6" stroke-width="6" fill="none" opacity="0.7"/>
  <path d="M64 360 L64 392 L96 392" stroke="#1d4ed8" stroke-width="3" fill="none" opacity="0.4"/>
  <path d="M448 152 L448 120 L416 120" stroke="#1d4ed8" stroke-width="3" fill="none" opacity="0.4"/>
  <!-- Zap bolt with gradient -->
  <path
    d="M296 112L176 272H240L208 400L336 240H272L296 112Z"
    fill="url(#zapGrad512)"
    stroke="#93c5fd"
    stroke-width="2"
    stroke-linejoin="round"
  />
  <defs>
    <linearGradient id="zapGrad512" x1="176" y1="112" x2="336" y2="400" gradientUnits="userSpaceOnUse">
      <stop offset="0%" stop-color="#bfdbfe"/>
      <stop offset="40%" stop-color="#60a5fa"/>
      <stop offset="100%" stop-color="#1d4ed8"/>
    </linearGradient>
  </defs>
</svg>
